<svg width="29" height="19" viewBox="0 0 29 19" fill="none" xmlns="http://www.w3.org/2000/svg">
  <path d="M24.9573 2.28657C22.4525 0.598299 18.4918 0.312298 18.3244 0.300165C18.0598 0.281098 17.8087 0.406765 17.7002 0.609565C17.6961 0.616499 17.475 1.1547 17.2611 1.67383C20.172 2.1011 22.1498 3.04923 22.2552 3.10123C22.7491 3.34217 22.9144 3.87343 22.6261 4.28683C22.435 4.56243 22.0888 4.7167 21.7333 4.7167C21.5566 4.7167 21.3789 4.67943 21.2156 4.5997C21.1867 4.58497 18.2851 3.20003 14.5021 3.20003C10.718 3.20003 7.81536 4.58583 7.78642 4.5997C7.29352 4.83977 6.66112 4.6985 6.37489 4.28423C6.08866 3.8717 6.25502 3.34217 6.74689 3.10123C6.85229 3.04923 8.83732 2.09763 11.7565 1.67123C11.5312 1.14603 11.3039 0.616499 11.2998 0.609565C11.1913 0.405899 10.9402 0.277632 10.6756 0.300165C10.5082 0.311432 6.54746 0.597432 4.00959 2.3091C2.68279 3.33697 0.0333252 9.34643 0.0333252 14.5421C0.0333252 14.634 0.0612252 14.7232 0.115992 14.803C1.94603 17.4983 6.93496 18.2038 8.07162 18.2341C8.07886 18.235 8.08506 18.235 8.09126 18.235C8.29172 18.235 8.48082 18.1544 8.59966 18.0183L9.82932 16.6212C7.13232 16.0761 5.70632 15.219 5.62056 15.1661C5.16176 14.8827 5.06256 14.3402 5.40046 13.9545C5.73732 13.5706 6.38212 13.4856 6.84092 13.7673C6.87916 13.7881 9.51106 15.3334 14.5 15.3334C19.5086 15.3334 22.1332 13.782 22.1591 13.7664C22.6179 13.4874 23.2647 13.5714 23.6006 13.958C23.9354 14.3428 23.8382 14.8818 23.3815 15.1644C23.2957 15.2172 21.877 16.0726 19.1862 16.6178L20.4003 18.0174C20.5192 18.1544 20.7083 18.2341 20.9087 18.2341C20.916 18.2341 20.9222 18.2341 20.9284 18.2332C22.0661 18.2029 27.055 17.4974 28.884 14.8021C28.9388 14.7224 28.9667 14.6331 28.9667 14.5412C28.9667 9.34643 26.3172 3.33697 24.9573 2.28657ZM10.3667 12.7334C9.22482 12.7334 8.29999 11.7636 8.29999 10.5667C8.29999 9.36983 9.22482 8.40003 10.3667 8.40003C11.5085 8.40003 12.4333 9.36983 12.4333 10.5667C12.4333 11.7636 11.5085 12.7334 10.3667 12.7334ZM18.6333 12.7334C17.4915 12.7334 16.5667 11.7636 16.5667 10.5667C16.5667 9.36983 17.4915 8.40003 18.6333 8.40003C19.7752 8.40003 20.7 9.36983 20.7 10.5667C20.7 11.7636 19.7752 12.7334 18.6333 12.7334Z" fill="white"/>
  </svg>
