<svg width="30" height="22" viewBox="0 0 30 22" fill="none" xmlns="http://www.w3.org/2000/svg">
  <path d="M17.6601 0C15.563 0 13.998 1.48472 13.998 3.17383V6.09714C11.2477 6.22361 8.7325 6.85911 6.72458 7.85586C5.9508 7.21188 4.9147 6.92592 3.91012 6.92656C2.82093 6.92726 1.70747 7.25436 0.939419 8.00312L0.921841 8.02005L0.904263 8.03698C0.167492 8.835 -0.124243 9.90405 0.0722316 10.9654C0.251663 11.9346 0.899384 12.9076 2.02536 13.5451C2.01798 13.6526 1.99801 13.758 1.99801 13.8667C1.99801 18.1671 7.83001 21.6667 14.998 21.6667C22.166 21.6667 27.998 18.1671 27.998 13.8667C27.998 13.758 27.978 13.6526 27.9707 13.5451C29.0966 12.9076 29.7444 11.9346 29.9238 10.9654C30.1203 9.90405 29.8285 8.835 29.0918 8.03698L29.0742 8.02005L29.0566 8.00312C28.2885 7.25425 27.1752 6.92726 26.0859 6.92656C25.0812 6.92592 24.045 7.21165 23.2714 7.85586C21.2635 6.85911 18.7483 6.22361 15.998 6.09714V3.17383C15.998 2.32534 16.5632 1.73333 17.6601 1.73333C18.1808 1.73333 18.8151 1.95945 19.8086 2.26146C20.6484 2.51676 21.7413 2.77481 23.1386 2.85221C23.4729 3.70854 24.4008 4.33333 25.498 4.33333C26.873 4.33333 27.998 3.35833 27.998 2.16667C27.998 0.975 26.873 0 25.498 0C24.5592 0 23.7456 0.459698 23.3183 1.12734C22.1238 1.07001 21.2463 0.86208 20.4707 0.626302C19.5669 0.351544 18.7364 0 17.6601 0ZM3.91012 8.6599C4.30526 8.65964 4.68068 8.74951 4.9902 8.89518C3.88621 9.69381 3.04858 10.6269 2.54293 11.6458C2.27445 11.3586 2.11266 11.0361 2.04879 10.6911C1.94103 10.109 2.14203 9.50391 2.4609 9.1457C2.76223 8.86461 3.31247 8.66028 3.91012 8.6599ZM26.0839 8.6599C26.6818 8.66028 27.2339 8.86469 27.5351 9.1457C27.854 9.50391 28.055 10.109 27.9472 10.6911C27.8834 11.0361 27.7216 11.3586 27.4531 11.6458C26.9474 10.6269 26.1098 9.69381 25.0058 8.89518C25.3146 8.74969 25.689 8.65964 26.0839 8.6599ZM9.99801 10.4C11.103 10.4 11.998 11.1757 11.998 12.1333C11.998 13.091 11.103 13.8667 9.99801 13.8667C8.89301 13.8667 7.99801 13.091 7.99801 12.1333C7.99801 11.1757 8.89301 10.4 9.99801 10.4ZM19.998 10.4C21.103 10.4 21.998 11.1757 21.998 12.1333C21.998 13.091 21.103 13.8667 19.998 13.8667C18.893 13.8667 17.998 13.091 17.998 12.1333C17.998 11.1757 18.893 10.4 19.998 10.4ZM20.2363 15.1954C19.5973 16.8135 17.554 18.2 14.998 18.2C12.442 18.2 10.3987 16.8142 9.75973 15.3122C10.9097 16.1208 12.826 16.6986 14.998 16.6986C17.17 16.6986 19.0863 16.1202 20.2363 15.1954Z" fill="white"/>
  </svg>
