<svg width="23" height="19" viewBox="0 0 23 19" fill="none" xmlns="http://www.w3.org/2000/svg">
  <path d="M20.8894 0.944006C20.5155 0.908756 20.1091 0.960662 19.7007 1.10416C19.1944 1.28116 11.2618 4.24732 3.86719 7.01432L1.42383 7.92838C0.477703 8.26938 0 8.82396 0 9.57096C0 10.094 0.249012 10.8033 1.43701 11.2213L5.56128 12.6901C5.9179 13.6411 6.74622 15.8492 6.95435 16.4362C7.0781 16.7842 7.39067 17.6609 8.18042 17.8659C8.34242 17.9149 8.51147 17.9401 8.68359 17.9401C9.18197 17.9401 9.54081 17.7339 9.71631 17.6139L12.3376 15.6432L15.5215 18.2604C15.6441 18.3714 16.2932 18.9323 17.165 18.9323C18.2529 18.9323 19.0781 18.1273 19.2502 17.3483C19.3436 16.9213 22.4143 3.21935 22.4143 3.22135C22.6899 2.12235 22.1944 1.55224 21.876 1.30924C21.6032 1.10174 21.2633 0.979256 20.8894 0.944006ZM20.1445 3.10416C19.7204 4.99416 17.4084 15.3105 17.0574 16.7975L12.4036 12.9713L9.24609 15.3483L10.1206 12.3073C10.1206 12.3073 16.1535 6.87915 16.5168 6.56315C16.8093 6.31015 16.8706 6.22146 16.8706 6.13346C16.8706 6.01646 16.8029 5.93229 16.6465 5.93229C16.5059 5.93229 16.3149 6.05207 16.2136 6.10807C14.9274 6.82088 9.45021 9.59453 6.75439 10.9577L2.84326 9.56901L4.7417 8.86002C9.57807 7.05002 18.1915 3.82616 20.1445 3.10416Z" fill="white"/>
  </svg>
