<svg width="28" height="20" viewBox="0 0 28 20" fill="none" xmlns="http://www.w3.org/2000/svg">
  <path d="M27.0325 3.06793C26.0717 3.44527 25.0419 3.69863 23.9592 3.81363C25.0642 3.22785 25.9133 2.30066 26.3114 1.19738C25.2795 1.73824 24.1319 2.13176 22.9152 2.34379C21.9402 1.42379 20.5508 0.850586 19.0131 0.850586C16.0597 0.850586 13.6649 2.9673 13.6649 5.57996C13.6649 5.95012 13.7136 6.31129 13.805 6.65809C9.36064 6.46043 5.42204 4.5773 2.78345 1.71488C2.32236 2.41566 2.06032 3.22785 2.06032 4.09395C2.06032 5.73449 3.00282 7.18277 4.43892 8.03269C3.56142 8.00754 2.73673 7.79371 2.01564 7.43973C2.01564 7.45949 2.01564 7.47926 2.01564 7.49902C2.01564 9.79184 3.86001 11.7019 6.30361 12.1386C5.85673 12.2464 5.38345 12.3039 4.89595 12.3039C4.55064 12.3039 4.21548 12.2751 3.88845 12.2176C4.57095 14.0954 6.54532 15.4664 8.88329 15.5041C7.05517 16.7727 4.7497 17.5274 2.24314 17.5274C1.81048 17.5274 1.38595 17.5058 0.969543 17.4609C3.33392 18.805 6.14517 19.5866 9.16564 19.5866C19.0009 19.5866 24.3797 12.3793 24.3797 6.1298C24.3797 5.92496 24.3736 5.71832 24.3655 5.51707C25.4095 4.85043 26.3155 4.01668 27.0325 3.06793Z" fill="white"/>
  </svg>
